# xmcd CD database file
#
# Track frame offsets:
#	150
#	31384
#	71549
#	95735
#	110556
#	137676
#	156788
#
# Disc length: 3181 seconds
#
# Revision: 0
# Processed by: cddbd v1.5.2PL0 Copyright (c) Steve Scherf et al.
# Submitted via: CDex 1.70beta1
#
DISCID=5c0c6b07
DTITLE=Stan Richardson - Moon On The Water - Disc 1
DYEAR=2005
DGENRE=New Age
TTITLE0=Kumoi Jishi
TTITLE1=Banshiki
TTITLE2=Akebono Jishi
TTITLE3=Esashi Oiwake
TTITLE4=Yoru no Uta
TTITLE5=Komoro Utta
TTITLE6=Tsuru no Sugomori
EXTD=YEAR: 2005
EXTT0=
EXTT1=
EXTT2=
EXTT3=
EXTT4=
EXTT5=
EXTT6=
PLAYORDER=
